<svg width="261" height="115" fill="none" xmlns="http://www.w3.org/2000/svg">
  <g clip-path="url(#clip0)">
    <mask id="a" maskUnits="userSpaceOnUse" x="102" y="41" width="108" height="97">
      <path d="M208.8 91c-3.8 41.4-30.3 47.2-44.8 46.7-36-1.3-59-45.5-61-56.3-1.6-9 3.8-17 12.6-23.3 13-9.4 33.4-15.5 49.5-17 27-2.3 46.4 20.4 43.7 49.8z" fill="#fff"/>
    </mask>
    <g mask="url(#a)">
      <path fill="url(#paint0_radial)" d="M97 35h119v107H97z"/>
    </g>
    <path d="M124 54.6c-9 5.3-19.7 27.4-16.7 33 3 5.5 12.9 4.8 30 4.4 17.2-.3 19-18.7 13.4-28.8-5.7-10.1-17.7-14-26.7-8.6z" fill="url(#paint1_angular)" opacity=".2" filter="url(#filter0_f)"/>
    <path d="M191 124.4c7.2-7.7 11.4-32 7-36.5s-13.7-1-30.1 4.3c-16.4 5.3-13.1 23.4-5 31.5 8.3 8.1 20.8 8.4 28 .7z" fill="url(#paint2_linear)" style="mix-blend-mode:overlay" filter="url(#filter1_f)"/>
    <ellipse cx="169.3" cy="113.2" rx="27.6" ry="27.6" fill="#4910A5" opacity=".4" filter="url(#filter2_f)"/>
    <path d="M144.4 72.7H140v9.5c0 2.3-1.3 4.7-4 4.7-2.8 0-3.3-2.6-3.3-4.6v-9.6h-4.3v10.8c0 3.5 1.8 7 6.3 7 2.6 0 4.6-1.5 5.4-3.3V90h4.2V72.7zM149.6 90h4.4v-8.9l7 8.9h5.6l-8-9.5 7.6-7.8h-5.6l-6.5 7.3h-.1V62.8h-4.4V90zM169.2 90h4.3V72.7h-4.3V90zm-.6-23.1c0 1.3 1.1 2.5 2.7 2.5s2.8-1 2.8-2.5-1.2-2.6-2.8-2.6a2.7 2.7 0 0 0-2.7 2.6zM179.3 76.2v8c0 3.4 1 6.2 5.6 6.2a9 9 0 0 0 2.9-.5l-.2-3.4c-.5.3-1.2.4-1.8.4-2 0-2.3-1.1-2.3-2.7v-8h4.4v-3.5h-4.4v-5h-4.2v5h-3v3.5h3z" fill="#FAFCFD"/>
    <path d="M0 77.3v11.5h2V84a3 3 0 0 0 2.5 1.2c2.3 0 3.8-1.8 3.8-4 0-2.3-1.6-4.1-3.8-4.1-1.4 0-2.2.7-2.6 1.3v-1H0zm6.3 3.8c0 1.2-.7 2.5-2.2 2.5-1.4 0-2.2-1.2-2.2-2.4s.8-2.5 2.2-2.5c1.5 0 2.2 1.2 2.2 2.4zM9.7 81.1a4 4 0 0 0 4.2 4.1 4 4 0 0 0 4.1-4c0-2.5-1.8-4.1-4.1-4.1-2.4 0-4.2 1.6-4.2 4zm2 0c0-1.2.6-2.4 2.2-2.4 1.5 0 2.2 1.2 2.2 2.4s-.7 2.5-2.2 2.5c-1.6 0-2.3-1.3-2.3-2.5zM21.5 85h2l1.7-5.4 1.7 5.4h2l2.6-7.7h-2L28 82.8l-1.7-5.5h-2l-1.7 5.5-1.6-5.5h-2.1l2.7 7.7zM34.2 80.4c.1-1 1-1.9 2.1-1.9 1.3 0 1.9.9 1.9 1.9h-4zm5.9.9c0-2.8-1.6-4.2-3.7-4.2a4 4 0 0 0-4.1 4.1c0 2.5 1.8 4 4.1 4 1.5 0 2.6-.5 3.3-1.5l-1.3-1c-.4.6-1 1-2 1-1.1 0-2.1-.8-2.2-2h5.9v-.4zM42 85h1.9v-4.1c0-.6.3-2 2-2h.6v-1.8H46c-1 0-1.8.6-2.2 1.5v-1.3h-1.9V85zM49 80.4c0-1 1-1.9 2-1.9 1.3 0 1.9.9 1.9 1.9h-4zm5.8.9c0-2.8-1.6-4.2-3.7-4.2a4 4 0 0 0-4 4.1c0 2.5 1.7 4 4 4 1.5 0 2.6-.5 3.4-1.5l-1.3-1c-.5.6-1 1-2 1-1.2 0-2.2-.8-2.2-2h5.8v-.4zM64.5 72.9h-2v5.4a3.1 3.1 0 0 0-2.6-1.2c-2.2 0-3.7 1.8-3.7 4 0 2.3 1.4 4.1 3.8 4.1a3 3 0 0 0 2.6-1.4V85h1.9V72.9zm-6.3 8.2c0-1.2.7-2.4 2.2-2.4 1.4 0 2.2 1.3 2.2 2.5s-.8 2.4-2.2 2.4c-1.5 0-2.2-1.3-2.2-2.5zM70.8 72.9V85h1.9v-1.2a3 3 0 0 0 2.6 1.4c2.4 0 3.8-1.8 3.8-4 0-2.3-1.5-4.1-3.7-4.1-1.4 0-2.2.7-2.6 1.2v-5.4h-2zm6.4 8.2c0 1.2-.8 2.5-2.2 2.5-1.5 0-2.3-1.2-2.3-2.4s.8-2.5 2.3-2.5c1.4 0 2.2 1.2 2.2 2.4zM83.1 85l-.4 1c-.3.8-.5 1.2-1.3 1.2l-.8-.1-.1 1.6 1 .1c1.7 0 2.3-.8 2.9-2.2l3.6-9.3h-2L84.1 83l-2.2-5.6h-2L83 85z" fill="#C5CED6"/>
  </g>
  <defs>
    <filter id="filter0_f" x="56.7" y="2.2" width="146.8" height="140.1" filterUnits="userSpaceOnUse" color-interpolation-filters="sRGB">
      <feFlood flood-opacity="0" result="BackgroundImageFix"/>
      <feBlend in="SourceGraphic" in2="BackgroundImageFix" result="shape"/>
      <feGaussianBlur stdDeviation="25" result="effect1_foregroundBlur"/>
    </filter>
    <filter id="filter1_f" x="104.2" y="33.9" width="147.6" height="148.1" filterUnits="userSpaceOnUse" color-interpolation-filters="sRGB">
      <feFlood flood-opacity="0" result="BackgroundImageFix"/>
      <feBlend in="SourceGraphic" in2="BackgroundImageFix" result="shape"/>
      <feGaussianBlur stdDeviation="26" result="effect1_foregroundBlur"/>
    </filter>
    <filter id="filter2_f" x="79.7" y="23.6" width="179.2" height="179.2" filterUnits="userSpaceOnUse" color-interpolation-filters="sRGB">
      <feFlood flood-opacity="0" result="BackgroundImageFix"/>
      <feBlend in="SourceGraphic" in2="BackgroundImageFix" result="shape"/>
      <feGaussianBlur stdDeviation="31" result="effect1_foregroundBlur"/>
    </filter>
    <radialGradient id="paint0_radial" cx="0" cy="0" r="1" gradientUnits="userSpaceOnUse" gradientTransform="rotate(-71.4 161.3 -27) scale(104.317 86.6422)">
      <stop stop-color="#2834DD"/>
      <stop offset="1" stop-color="#E40899"/>
    </radialGradient>
    <radialGradient id="paint1_angular" cx="0" cy="0" r="1" gradientUnits="userSpaceOnUse" gradientTransform="matrix(56.28465 -11.6313 5.159 24.96472 101.7 84)">
      <stop stop-color="#2834DD"/>
      <stop offset="1" stop-color="#E40899"/>
    </radialGradient>
    <linearGradient id="paint2_linear" x1="178.5" y1="117" x2="174.2" y2="102.4" gradientUnits="userSpaceOnUse">
      <stop stop-color="#301661"/>
      <stop offset="1" stop-color="#240413" stop-opacity="0"/>
    </linearGradient>
    <clipPath id="clip0">
      <path fill="#fff" d="M0 0h261v115H0z"/>
    </clipPath>
  </defs>
</svg>
