<?xml version="1.0" encoding="UTF-8" standalone="no"?>
<svg width="34px" height="34px" viewBox="0 0 34 34" version="1.1" xmlns="http://www.w3.org/2000/svg" xmlns:xlink="http://www.w3.org/1999/xlink" xmlns:sketch="http://www.bohemiancoding.com/sketch/ns">
    <!-- Generator: Sketch 3.3.2 (12043) - http://www.bohemiancoding.com/sketch -->
    <title>Up_Btn</title>
    <desc>Created with Sketch.</desc>
    <defs></defs>
    <g id="Index" stroke="none" stroke-width="1" fill="none" fill-rule="evenodd" sketch:type="MSPage">
        <g id="03-Dashboard/Index/Index" sketch:type="MSArtboardGroup" transform="translate(-661.000000, -357.000000)">
            <g id="Up_Btn" sketch:type="MSLayerGroup" transform="translate(661.000000, 357.000000)">
                <path d="M17,34 C7.611,34 0,26.389 0,17 C0,7.611 7.611,0 17,0 C26.389,0 34,7.611 34,17 C34,26.389 26.389,34 17,34 L17,34 L17,34 Z" id="Shape" fill="#FFFFFF" sketch:type="MSShapeGroup"></path>
                <path d="M23.7325767,18.439 L17.6441188,12.267 C17.2885544,11.91 16.7108788,11.91 16.3553144,12.267 L10.2659233,18.439 C9.91035889,18.796 9.91035889,19.375 10.2659233,19.732 C10.6214878,20.089 11.1991633,20.089 11.5547278,19.732 L16.99925,14.214 L22.4437722,19.733 C22.7993367,20.09 23.3770122,20.09 23.7325767,19.733 C24.0881411,19.375 24.0881411,18.796 23.7325767,18.439 L23.7325767,18.439 L23.7325767,18.439 Z" id="Path" fill="#3A3C41" sketch:type="MSShapeGroup"></path>
            </g>
        </g>
    </g>
</svg>